<?xml version="1.0" encoding="UTF-8" standalone="no"?>
<!DOCTYPE svg PUBLIC "-//W3C//DTD SVG 20010904//EN"
              "http://www.w3.org/TR/2001/REC-SVG-20010904/DTD/svg10.dtd">

<svg xmlns="http://www.w3.org/2000/svg"
     width="5.68889in" height="4.33333in"
     viewBox="0 0 512 390">
  <path id="Selection"
        fill="#ffffff"
        d="M 25.00,4.00
           C 29.36,10.09 39.31,19.31 45.00,25.00
             45.00,25.00 82.00,62.00 82.00,62.00
             82.00,62.00 197.00,177.00 197.00,177.00
             197.00,177.00 239.00,219.00 239.00,219.00
             241.79,221.79 251.57,232.79 255.00,232.80
             258.63,232.82 269.18,221.82 272.00,219.00
             272.00,219.00 314.00,178.00 314.00,178.00
             314.00,178.00 429.00,63.00 429.00,63.00
             429.00,63.00 466.00,26.00 466.00,26.00
             471.81,20.19 482.59,10.16 487.00,4.00
             483.31,2.54 479.95,1.18 476.00,0.09
             476.00,0.09 442.00,0.09 442.00,0.09
             442.00,0.09 366.00,0.09 366.00,0.09
             366.00,0.09 132.00,0.09 132.00,0.09
             132.00,0.09 66.00,0.09 66.00,0.09
             50.65,0.00 39.53,-1.77 25.00,4.00 Z
           M 4.00,25.00
           C -1.67,39.28 0.00,48.00 0.00,63.00
             0.00,63.00 0.00,116.00 0.00,116.00
             0.00,116.00 0.00,284.00 0.00,284.00
             0.00,284.00 0.00,330.00 0.00,330.00
             0.00,344.64 -1.55,351.02 4.00,365.00
             4.00,365.00 48.00,322.00 48.00,322.00
             48.00,322.00 132.00,238.00 132.00,238.00
             132.00,238.00 163.00,207.00 163.00,207.00
             165.33,204.67 172.80,198.16 172.80,195.00
             172.80,191.84 165.33,185.33 163.00,183.00
             163.00,183.00 132.00,152.00 132.00,152.00
             132.00,152.00 48.00,68.00 48.00,68.00
             48.00,68.00 4.00,25.00 4.00,25.00 Z
           M 507.00,25.00
           C 507.00,25.00 381.00,151.00 381.00,151.00
             381.00,151.00 349.00,183.00 349.00,183.00
             346.67,185.33 339.20,191.84 339.20,195.00
             339.20,198.16 346.67,204.67 349.00,207.00
             349.00,207.00 380.00,238.00 380.00,238.00
             380.00,238.00 464.00,322.00 464.00,322.00
             464.00,322.00 508.00,365.00 508.00,365.00
             513.59,350.91 512.00,343.76 512.00,329.00
             512.00,329.00 512.00,282.00 512.00,282.00
             512.00,282.00 512.00,108.00 512.00,108.00
             512.00,108.00 512.00,53.00 512.00,53.00
             512.00,43.50 513.17,32.98 507.00,25.00 Z
           M 25.00,386.00
           C 39.53,391.77 50.65,390.00 66.00,389.91
             66.00,389.91 132.00,389.91 132.00,389.91
             132.00,389.91 366.00,389.91 366.00,389.91
             366.00,389.91 442.00,389.91 442.00,389.91
             442.00,389.91 476.00,389.91 476.00,389.91
             479.95,388.82 483.31,387.46 487.00,386.00
             487.00,386.00 444.00,342.00 444.00,342.00
             444.00,342.00 360.00,258.00 360.00,258.00
             360.00,258.00 329.00,227.00 329.00,227.00
             326.66,224.66 320.17,217.20 317.00,217.20
             313.76,217.19 303.60,227.42 301.00,230.00
             301.00,230.00 272.00,258.00 272.00,258.00
             267.21,262.78 262.37,268.92 255.00,268.92
             247.95,268.92 243.60,263.59 239.00,259.00
             239.00,259.00 210.00,230.00 210.00,230.00
             207.32,227.32 198.38,217.20 195.00,217.20
             191.84,217.20 185.33,224.67 183.00,227.00
             183.00,227.00 152.00,258.00 152.00,258.00
             152.00,258.00 68.00,342.00 68.00,342.00
             68.00,342.00 25.00,386.00 25.00,386.00 Z" />
</svg>
