<?xml version="1.0" encoding="UTF-8" standalone="no"?>
<!DOCTYPE svg PUBLIC "-//W3C//DTD SVG 20010904//EN"
              "http://www.w3.org/TR/2001/REC-SVG-20010904/DTD/svg10.dtd">

<svg xmlns="http://www.w3.org/2000/svg"
     width="33.8667mm" height="33.8667mm"
     viewBox="0 0 400 400">
  <path id="Selection"
        fill="black" stroke="black" stroke-width="1"
        d="M 32.00,0.15
           C 27.38,1.49 24.15,2.49 20.00,4.88
             16.13,7.10 13.12,9.74 10.09,13.00
             -1.96,25.97 0.00,37.86 0.00,54.00
             0.00,54.00 0.00,88.00 0.00,88.00
             0.00,88.00 0.00,360.00 0.00,360.00
             0.01,365.58 0.15,368.62 2.09,374.00
             6.67,386.72 18.64,397.13 32.00,399.88
             32.00,399.88 54.00,399.88 54.00,399.88
             54.00,399.88 83.00,399.88 83.00,399.88
             83.00,399.88 360.00,399.88 360.00,399.88
             365.58,399.99 368.62,399.85 374.00,397.91
             386.72,393.33 397.13,381.36 399.88,368.00
             399.88,368.00 399.88,346.00 399.88,346.00
             399.88,346.00 399.88,317.00 399.88,317.00
             399.88,317.00 399.88,40.00 399.88,40.00
             399.99,34.42 399.85,31.38 397.91,26.00
             393.33,13.28 381.36,2.87 368.00,0.15
             368.00,0.15 347.00,0.15 347.00,0.15
             347.00,0.15 319.00,0.15 319.00,0.15
             319.00,0.15 128.00,0.15 128.00,0.15
             128.00,0.15 66.00,0.15 66.00,0.15
             66.00,0.15 32.00,0.15 32.00,0.15 Z" />
               <path id="Selection #1"
        fill="white" stroke="black" stroke-width="1"
        d="M 137.00,104.00
           C 137.00,104.00 137.00,254.00 137.00,254.00
             137.00,254.00 62.00,254.00 62.00,254.00
             62.00,254.00 62.00,229.00 62.00,229.00
             62.00,229.00 12.00,229.00 12.00,229.00
             12.00,229.00 12.00,254.00 12.00,254.00
             12.00,254.00 37.00,254.00 37.00,254.00
             37.00,254.00 37.00,279.00 37.00,279.00
             37.00,279.00 162.00,279.00 162.00,279.00
             162.00,279.00 162.00,254.00 162.00,254.00
             162.00,254.00 187.00,254.00 187.00,254.00
             187.00,254.00 187.00,104.00 187.00,104.00
             187.00,104.00 137.00,104.00 137.00,104.00 Z
           M 212.00,104.00
           C 212.00,104.00 212.00,279.00 212.00,279.00
             212.00,279.00 262.00,279.00 262.00,279.00
             262.00,279.00 262.00,229.00 262.00,229.00
             262.00,229.00 362.00,229.00 362.00,229.00
             362.00,229.00 362.00,204.00 362.00,204.00
             362.00,204.00 387.00,204.00 387.00,204.00
             387.00,204.00 387.00,129.00 387.00,129.00
             387.00,129.00 362.00,129.00 362.00,129.00
             362.00,129.00 362.00,104.00 362.00,104.00
             362.00,104.00 212.00,104.00 212.00,104.00 Z
           M 337.00,129.00
           C 337.00,129.00 337.00,204.00 337.00,204.00
             337.00,204.00 262.00,204.00 262.00,204.00
             262.00,204.00 262.00,129.00 262.00,129.00
             262.00,129.00 337.00,129.00 337.00,129.00 Z" />
</svg>
