<?xml version="1.0" encoding="UTF-8" standalone="no"?>
<!DOCTYPE svg PUBLIC "-//W3C//DTD SVG 20010904//EN"
              "http://www.w3.org/TR/2001/REC-SVG-20010904/DTD/svg10.dtd">

<svg xmlns="http://www.w3.org/2000/svg"
     width="1.33333in" height="1.33333in"
     viewBox="0 0 400 400">
  <path id="Selection"
        fill="#FFFFFF" stroke="black" stroke-width="1"
        d="M 137.00,104.00
           C 137.00,104.00 137.00,254.00 137.00,254.00
             137.00,254.00 62.00,254.00 62.00,254.00
             62.00,254.00 62.00,229.00 62.00,229.00
             62.00,229.00 12.00,229.00 12.00,229.00
             12.00,229.00 12.00,254.00 12.00,254.00
             12.00,254.00 37.00,254.00 37.00,254.00
             37.00,254.00 37.00,279.00 37.00,279.00
             37.00,279.00 162.00,279.00 162.00,279.00
             162.00,279.00 162.00,254.00 162.00,254.00
             162.00,254.00 187.00,254.00 187.00,254.00
             187.00,254.00 187.00,104.00 187.00,104.00
             187.00,104.00 137.00,104.00 137.00,104.00 Z
           M 212.00,104.00
           C 212.00,104.00 212.00,279.00 212.00,279.00
             212.00,279.00 262.00,279.00 262.00,279.00
             262.00,279.00 262.00,229.00 262.00,229.00
             262.00,229.00 362.00,229.00 362.00,229.00
             362.00,229.00 362.00,204.00 362.00,204.00
             362.00,204.00 387.00,204.00 387.00,204.00
             387.00,204.00 387.00,129.00 387.00,129.00
             387.00,129.00 362.00,129.00 362.00,129.00
             362.00,129.00 362.00,104.00 362.00,104.00
             362.00,104.00 212.00,104.00 212.00,104.00 Z
           M 337.00,129.00
           C 337.00,129.00 337.00,204.00 337.00,204.00
             337.00,204.00 262.00,204.00 262.00,204.00
             262.00,204.00 262.00,129.00 262.00,129.00
             262.00,129.00 337.00,129.00 337.00,129.00 Z" />
</svg>
